<svg xmlns="http://www.w3.org/2000/svg" xmlns:xlink="http://www.w3.org/1999/xlink" width="500" zoomAndPan="magnify" viewBox="0 0 375 374.999991" height="500" preserveAspectRatio="xMidYMid meet" version="1.2"><defs><clipPath id="8c3a6bf5e0"><path d="M 10.625 15.730469 L 364.371094 15.730469 L 364.371094 359.269531 L 10.625 359.269531 Z M 10.625 15.730469 "/></clipPath><clipPath id="4179b44107"><path d="M 54.875 15.730469 L 320.125 15.730469 C 344.5625 15.730469 364.375 35.542969 364.375 59.980469 L 364.375 315.019531 C 364.375 339.457031 344.5625 359.269531 320.125 359.269531 L 54.875 359.269531 C 30.4375 359.269531 10.625 339.457031 10.625 315.019531 L 10.625 59.980469 C 10.625 35.542969 30.4375 15.730469 54.875 15.730469 Z M 54.875 15.730469 "/></clipPath><linearGradient x1="0.000808398" gradientTransform="matrix(1.341935,0,0,1.341935,10.624141,15.7323)" y1="128" x2="263.610993" gradientUnits="userSpaceOnUse" y2="128" id="abe7967bf5"><stop style="stop-color:#00f5a0;stop-opacity:1;" offset="0"/><stop style="stop-color:#00f5a0;stop-opacity:1;" offset="0.0078125"/><stop style="stop-color:#00f5a1;stop-opacity:1;" offset="0.015625"/><stop style="stop-color:#00f5a2;stop-opacity:1;" offset="0.0234375"/><stop style="stop-color:#00f4a2;stop-opacity:1;" offset="0.03125"/><stop style="stop-color:#00f4a3;stop-opacity:1;" offset="0.0390625"/><stop style="stop-color:#00f4a4;stop-opacity:1;" offset="0.046875"/><stop style="stop-color:#00f4a4;stop-opacity:1;" offset="0.0546875"/><stop style="stop-color:#00f3a5;stop-opacity:1;" offset="0.0625"/><stop style="stop-color:#00f3a6;stop-opacity:1;" offset="0.0703125"/><stop style="stop-color:#00f3a6;stop-opacity:1;" offset="0.078125"/><stop style="stop-color:#00f3a7;stop-opacity:1;" offset="0.0859375"/><stop style="stop-color:#00f3a8;stop-opacity:1;" offset="0.09375"/><stop style="stop-color:#00f2a8;stop-opacity:1;" offset="0.101562"/><stop style="stop-color:#00f2a9;stop-opacity:1;" offset="0.109375"/><stop style="stop-color:#00f2aa;stop-opacity:1;" offset="0.117188"/><stop style="stop-color:#00f2aa;stop-opacity:1;" offset="0.125"/><stop style="stop-color:#00f1ab;stop-opacity:1;" offset="0.132812"/><stop style="stop-color:#00f1ac;stop-opacity:1;" offset="0.140625"/><stop style="stop-color:#00f1ac;stop-opacity:1;" offset="0.148437"/><stop style="stop-color:#00f1ad;stop-opacity:1;" offset="0.15625"/><stop style="stop-color:#00f1ae;stop-opacity:1;" offset="0.164062"/><stop style="stop-color:#00f0ae;stop-opacity:1;" offset="0.171875"/><stop style="stop-color:#00f0af;stop-opacity:1;" offset="0.179687"/><stop style="stop-color:#00f0b0;stop-opacity:1;" offset="0.1875"/><stop style="stop-color:#00f0b0;stop-opacity:1;" offset="0.195312"/><stop style="stop-color:#00efb1;stop-opacity:1;" offset="0.203125"/><stop style="stop-color:#00efb2;stop-opacity:1;" offset="0.210937"/><stop style="stop-color:#00efb2;stop-opacity:1;" offset="0.21875"/><stop style="stop-color:#00efb3;stop-opacity:1;" offset="0.226562"/><stop style="stop-color:#00efb4;stop-opacity:1;" offset="0.234375"/><stop style="stop-color:#00eeb4;stop-opacity:1;" offset="0.242187"/><stop style="stop-color:#00eeb5;stop-opacity:1;" offset="0.25"/><stop style="stop-color:#00eeb6;stop-opacity:1;" offset="0.257812"/><stop style="stop-color:#00eeb6;stop-opacity:1;" offset="0.265625"/><stop style="stop-color:#00edb7;stop-opacity:1;" offset="0.273437"/><stop style="stop-color:#00edb8;stop-opacity:1;" offset="0.28125"/><stop style="stop-color:#00edb8;stop-opacity:1;" offset="0.289062"/><stop style="stop-color:#00edb9;stop-opacity:1;" offset="0.296875"/><stop style="stop-color:#00edb9;stop-opacity:1;" offset="0.304687"/><stop style="stop-color:#00ecba;stop-opacity:1;" offset="0.3125"/><stop style="stop-color:#00ecbb;stop-opacity:1;" offset="0.320312"/><stop style="stop-color:#00ecbb;stop-opacity:1;" offset="0.328125"/><stop style="stop-color:#00ecbc;stop-opacity:1;" offset="0.335937"/><stop style="stop-color:#00ecbd;stop-opacity:1;" offset="0.34375"/><stop style="stop-color:#00ebbd;stop-opacity:1;" offset="0.351562"/><stop style="stop-color:#00ebbe;stop-opacity:1;" offset="0.359375"/><stop style="stop-color:#00ebbf;stop-opacity:1;" offset="0.367187"/><stop style="stop-color:#00ebbf;stop-opacity:1;" offset="0.375"/><stop style="stop-color:#00eac0;stop-opacity:1;" offset="0.382812"/><stop style="stop-color:#00eac1;stop-opacity:1;" offset="0.390625"/><stop style="stop-color:#00eac1;stop-opacity:1;" offset="0.398437"/><stop style="stop-color:#00eac2;stop-opacity:1;" offset="0.40625"/><stop style="stop-color:#00eac3;stop-opacity:1;" offset="0.414062"/><stop style="stop-color:#00e9c3;stop-opacity:1;" offset="0.421875"/><stop style="stop-color:#00e9c4;stop-opacity:1;" offset="0.429687"/><stop style="stop-color:#00e9c5;stop-opacity:1;" offset="0.4375"/><stop style="stop-color:#00e9c5;stop-opacity:1;" offset="0.445312"/><stop style="stop-color:#00e8c6;stop-opacity:1;" offset="0.453125"/><stop style="stop-color:#00e8c7;stop-opacity:1;" offset="0.460937"/><stop style="stop-color:#00e8c7;stop-opacity:1;" offset="0.46875"/><stop style="stop-color:#00e8c8;stop-opacity:1;" offset="0.476562"/><stop style="stop-color:#00e8c9;stop-opacity:1;" offset="0.484375"/><stop style="stop-color:#00e7c9;stop-opacity:1;" offset="0.492187"/><stop style="stop-color:#00e7ca;stop-opacity:1;" offset="0.5"/><stop style="stop-color:#00e7cb;stop-opacity:1;" offset="0.507813"/><stop style="stop-color:#00e7cb;stop-opacity:1;" offset="0.515625"/><stop style="stop-color:#00e6cc;stop-opacity:1;" offset="0.523438"/><stop style="stop-color:#00e6cd;stop-opacity:1;" offset="0.53125"/><stop style="stop-color:#00e6cd;stop-opacity:1;" offset="0.539062"/><stop style="stop-color:#00e6ce;stop-opacity:1;" offset="0.546875"/><stop style="stop-color:#00e6cf;stop-opacity:1;" offset="0.554688"/><stop style="stop-color:#00e5cf;stop-opacity:1;" offset="0.5625"/><stop style="stop-color:#00e5d0;stop-opacity:1;" offset="0.570312"/><stop style="stop-color:#00e5d1;stop-opacity:1;" offset="0.578125"/><stop style="stop-color:#00e5d1;stop-opacity:1;" offset="0.585938"/><stop style="stop-color:#00e5d2;stop-opacity:1;" offset="0.59375"/><stop style="stop-color:#00e4d3;stop-opacity:1;" offset="0.601563"/><stop style="stop-color:#00e4d3;stop-opacity:1;" offset="0.609375"/><stop style="stop-color:#00e4d4;stop-opacity:1;" offset="0.617188"/><stop style="stop-color:#00e4d5;stop-opacity:1;" offset="0.625"/><stop style="stop-color:#00e3d5;stop-opacity:1;" offset="0.632812"/><stop style="stop-color:#00e3d6;stop-opacity:1;" offset="0.640625"/><stop style="stop-color:#00e3d7;stop-opacity:1;" offset="0.648438"/><stop style="stop-color:#00e3d7;stop-opacity:1;" offset="0.65625"/><stop style="stop-color:#00e3d8;stop-opacity:1;" offset="0.664062"/><stop style="stop-color:#00e2d9;stop-opacity:1;" offset="0.671875"/><stop style="stop-color:#00e2d9;stop-opacity:1;" offset="0.679688"/><stop style="stop-color:#00e2da;stop-opacity:1;" offset="0.6875"/><stop style="stop-color:#00e2db;stop-opacity:1;" offset="0.695312"/><stop style="stop-color:#00e1db;stop-opacity:1;" offset="0.703125"/><stop style="stop-color:#00e1dc;stop-opacity:1;" offset="0.710938"/><stop style="stop-color:#00e1dd;stop-opacity:1;" offset="0.71875"/><stop style="stop-color:#00e1dd;stop-opacity:1;" offset="0.726562"/><stop style="stop-color:#00e1de;stop-opacity:1;" offset="0.734375"/><stop style="stop-color:#00e0df;stop-opacity:1;" offset="0.742188"/><stop style="stop-color:#00e0df;stop-opacity:1;" offset="0.75"/><stop style="stop-color:#00e0e0;stop-opacity:1;" offset="0.757812"/><stop style="stop-color:#00e0e1;stop-opacity:1;" offset="0.765625"/><stop style="stop-color:#00dfe1;stop-opacity:1;" offset="0.773438"/><stop style="stop-color:#00dfe2;stop-opacity:1;" offset="0.78125"/><stop style="stop-color:#00dfe3;stop-opacity:1;" offset="0.789062"/><stop style="stop-color:#00dfe3;stop-opacity:1;" offset="0.796875"/><stop style="stop-color:#00dfe4;stop-opacity:1;" offset="0.804688"/><stop style="stop-color:#00dee5;stop-opacity:1;" offset="0.8125"/><stop style="stop-color:#00dee5;stop-opacity:1;" offset="0.820312"/><stop style="stop-color:#00dee6;stop-opacity:1;" offset="0.828125"/><stop style="stop-color:#00dee7;stop-opacity:1;" offset="0.835938"/><stop style="stop-color:#00dde7;stop-opacity:1;" offset="0.84375"/><stop style="stop-color:#00dde8;stop-opacity:1;" offset="0.851562"/><stop style="stop-color:#00dde9;stop-opacity:1;" offset="0.859375"/><stop style="stop-color:#00dde9;stop-opacity:1;" offset="0.867188"/><stop style="stop-color:#00ddea;stop-opacity:1;" offset="0.875"/><stop style="stop-color:#00dceb;stop-opacity:1;" offset="0.882812"/><stop style="stop-color:#00dceb;stop-opacity:1;" offset="0.890625"/><stop style="stop-color:#00dcec;stop-opacity:1;" offset="0.898437"/><stop style="stop-color:#00dced;stop-opacity:1;" offset="0.90625"/><stop style="stop-color:#00dced;stop-opacity:1;" offset="0.914062"/><stop style="stop-color:#00dbee;stop-opacity:1;" offset="0.921875"/><stop style="stop-color:#00dbef;stop-opacity:1;" offset="0.929688"/><stop style="stop-color:#00dbef;stop-opacity:1;" offset="0.9375"/><stop style="stop-color:#00dbf0;stop-opacity:1;" offset="0.945312"/><stop style="stop-color:#00daf1;stop-opacity:1;" offset="0.953125"/><stop style="stop-color:#00daf1;stop-opacity:1;" offset="0.960938"/><stop style="stop-color:#00daf2;stop-opacity:1;" offset="0.96875"/><stop style="stop-color:#00daf3;stop-opacity:1;" offset="0.976562"/><stop style="stop-color:#00daf3;stop-opacity:1;" offset="0.984375"/><stop style="stop-color:#00d9f4;stop-opacity:1;" offset="0.992187"/><stop style="stop-color:#00d9f5;stop-opacity:1;" offset="1"/></linearGradient><clipPath id="ca69cd7f6e"><path d="M 47.160156 46.25 L 326.910156 46.25 L 326.910156 326 L 47.160156 326 Z M 47.160156 46.25 "/></clipPath><clipPath id="ec8e08c268"><path d="M 187.035156 46.25 C 109.78125 46.25 47.160156 108.871094 47.160156 186.125 C 47.160156 263.375 109.78125 326 187.035156 326 C 264.285156 326 326.910156 263.375 326.910156 186.125 C 326.910156 108.871094 264.285156 46.25 187.035156 46.25 Z M 187.035156 46.25 "/></clipPath><clipPath id="8a868fff06"><path d="M 273.660156 21.945312 L 303.578125 21.945312 L 303.578125 50.417969 L 273.660156 50.417969 Z M 273.660156 21.945312 "/></clipPath><clipPath id="a7d2b2c84e"><path d="M 288.597656 21.945312 L 292.121094 32.820312 L 303.53125 32.820312 L 294.300781 39.542969 L 297.828125 50.417969 L 288.597656 43.695312 L 279.367188 50.417969 L 282.890625 39.542969 L 273.660156 32.820312 L 285.070312 32.820312 Z M 288.597656 21.945312 "/></clipPath><clipPath id="d99a97c214"><path d="M 297.269531 32.011719 L 327.183594 32.011719 L 327.183594 60.484375 L 297.269531 60.484375 Z M 297.269531 32.011719 "/></clipPath><clipPath id="f9799ffe29"><path d="M 312.203125 32.011719 L 315.730469 42.886719 L 327.140625 42.886719 L 317.910156 49.609375 L 321.433594 60.484375 L 312.203125 53.761719 L 302.972656 60.484375 L 306.5 49.609375 L 297.269531 42.886719 L 308.679688 42.886719 Z M 312.203125 32.011719 "/></clipPath><clipPath id="8e502c2da8"><path d="M 279.042969 49.839844 L 303.570312 49.839844 L 303.570312 73.179688 L 279.042969 73.179688 Z M 279.042969 49.839844 "/></clipPath><clipPath id="670805b69a"><path d="M 291.289062 49.839844 L 294.179688 58.753906 L 303.53125 58.753906 L 295.964844 64.265625 L 298.855469 73.179688 L 291.289062 67.671875 L 283.722656 73.179688 L 286.613281 64.265625 L 279.042969 58.753906 L 288.398438 58.753906 Z M 291.289062 49.839844 "/></clipPath><clipPath id="f8b81ba7f1"><path d="M 297.269531 61.511719 L 321.792969 61.511719 L 321.792969 84.851562 L 297.269531 84.851562 Z M 297.269531 61.511719 "/></clipPath><clipPath id="d07b2a19cf"><path d="M 309.511719 61.511719 L 312.402344 70.425781 L 321.757812 70.425781 L 314.1875 75.933594 L 317.078125 84.851562 L 309.511719 79.339844 L 301.945312 84.851562 L 304.835938 75.933594 L 297.269531 70.425781 L 306.621094 70.425781 Z M 309.511719 61.511719 "/></clipPath><clipPath id="54b4d2b68a"><path d="M 314.894531 53.9375 L 339.421875 53.9375 L 339.421875 77.277344 L 314.894531 77.277344 Z M 314.894531 53.9375 "/></clipPath><clipPath id="77a1fbdb42"><path d="M 327.140625 53.9375 L 330.03125 62.851562 L 339.382812 62.851562 L 331.816406 68.359375 L 334.707031 77.277344 L 327.140625 71.765625 L 319.570312 77.277344 L 322.460938 68.359375 L 314.894531 62.851562 L 324.25 62.851562 Z M 327.140625 53.9375 "/></clipPath><clipPath id="8da50e5da7"><path d="M 258.582031 37.144531 L 283.105469 37.144531 L 283.105469 60.484375 L 258.582031 60.484375 Z M 258.582031 37.144531 "/></clipPath><clipPath id="9a85ef029c"><path d="M 270.824219 37.144531 L 273.714844 46.058594 L 283.070312 46.058594 L 275.5 51.570312 L 278.390625 60.484375 L 270.824219 54.972656 L 263.257812 60.484375 L 266.148438 51.570312 L 258.582031 46.058594 L 267.933594 46.058594 Z M 270.824219 37.144531 "/></clipPath></defs><g id="a59ae2f707"><g clip-rule="nonzero" clip-path="url(#8c3a6bf5e0)"><g clip-rule="nonzero" clip-path="url(#4179b44107)"><path style=" stroke:none;fill-rule:nonzero;fill:url(#linear0);" d="M 10.625 15.730469 L 10.625 359.269531 L 364.371094 359.269531 L 364.371094 15.730469 Z M 10.625 15.730469 "/></g></g><path style="fill:none;stroke-width:8;stroke-linecap:butt;stroke-linejoin:miter;stroke:#ffffff;stroke-opacity:1;stroke-miterlimit:4;" d="M 0.00177806 3.998118 L 309.418457 3.998118 " transform="matrix(0.749015,0,0,0.749015,71.467418,207.895974)"/><path style="fill:none;stroke-width:8;stroke-linecap:butt;stroke-linejoin:miter;stroke:#ffffff;stroke-opacity:1;stroke-miterlimit:4;" d="M -0.00242604 3.998033 L 309.419468 3.998033 " transform="matrix(0,-0.749015,0.749015,0,184.458537,305.24037)"/><path style="fill:none;stroke-width:8;stroke-linecap:butt;stroke-linejoin:miter;stroke:#ffffff;stroke-opacity:1;stroke-miterlimit:4;" d="M -0.00203188 4.001297 L 309.419862 4.001297 " transform="matrix(0.749015,0,0,0.749015,71.431209,158.655311)"/><path style="fill:none;stroke-width:8;stroke-linecap:butt;stroke-linejoin:miter;stroke:#ffffff;stroke-opacity:1;stroke-miterlimit:4;" d="M -0.000800132 4.002177 L 309.420343 3.996616 " transform="matrix(0.497322,-0.560084,0.560084,0.497322,108.17681,273.981836)"/><path style="fill:none;stroke-width:8;stroke-linecap:butt;stroke-linejoin:miter;stroke:#ffffff;stroke-opacity:1;stroke-miterlimit:4;" d="M -0.00134357 3.99933 L 309.420705 3.99717 " transform="matrix(0.474835,0.579271,-0.579271,0.474835,116.223585,97.578318)"/><path style="fill:none;stroke-width:8;stroke-linecap:butt;stroke-linejoin:miter;stroke:#ffffff;stroke-opacity:1;stroke-miterlimit:4;" d="M -0.00203188 3.999018 L 309.414647 3.999018 " transform="matrix(0.749015,0,0,0.749015,71.431209,183.23905)"/><path style="fill:none;stroke-width:8;stroke-linecap:butt;stroke-linejoin:miter;stroke:#ffffff;stroke-opacity:1;stroke-miterlimit:4;" d="M -0.000904312 4.000908 L 309.421099 4.000337 " transform="matrix(0.249559,-0.706218,0.706218,0.249559,145.971588,304.97746)"/><path style="fill:none;stroke-width:8;stroke-linecap:butt;stroke-linejoin:miter;stroke:#ffffff;stroke-opacity:1;stroke-miterlimit:4;" d="M 0.00122786 4.000099 L 309.422964 3.999831 " transform="matrix(-0.222895,-0.715082,0.715082,-0.222895,220.483627,303.89248)"/><g clip-rule="nonzero" clip-path="url(#ca69cd7f6e)"><g clip-rule="nonzero" clip-path="url(#ec8e08c268)"><path style="fill:none;stroke-width:12;stroke-linecap:butt;stroke-linejoin:miter;stroke:#ffffff;stroke-opacity:1;stroke-miterlimit:4;" d="M 186.650322 0.00180495 C 83.563122 0.00180495 0.00186875 83.563058 0.00186875 186.650258 C 0.00186875 289.732245 83.563122 373.298711 186.650322 373.298711 C 289.732309 373.298711 373.298775 289.732245 373.298775 186.650258 C 373.298775 83.563058 289.732309 0.00180495 186.650322 0.00180495 Z M 186.650322 0.00180495 " transform="matrix(0.749403,0,0,0.749403,47.158756,46.248647)"/></g></g><g clip-rule="nonzero" clip-path="url(#8a868fff06)"><g clip-rule="nonzero" clip-path="url(#a7d2b2c84e)"><path style=" stroke:none;fill-rule:nonzero;fill:#ffffff;fill-opacity:1;" d="M 273.660156 21.945312 L 303.578125 21.945312 L 303.578125 50.417969 L 273.660156 50.417969 Z M 273.660156 21.945312 "/></g></g><g clip-rule="nonzero" clip-path="url(#d99a97c214)"><g clip-rule="nonzero" clip-path="url(#f9799ffe29)"><path style=" stroke:none;fill-rule:nonzero;fill:#ffffff;fill-opacity:1;" d="M 297.269531 32.011719 L 327.183594 32.011719 L 327.183594 60.484375 L 297.269531 60.484375 Z M 297.269531 32.011719 "/></g></g><g clip-rule="nonzero" clip-path="url(#8e502c2da8)"><g clip-rule="nonzero" clip-path="url(#670805b69a)"><path style=" stroke:none;fill-rule:nonzero;fill:#ffffff;fill-opacity:1;" d="M 279.042969 49.839844 L 303.570312 49.839844 L 303.570312 73.179688 L 279.042969 73.179688 Z M 279.042969 49.839844 "/></g></g><g clip-rule="nonzero" clip-path="url(#f8b81ba7f1)"><g clip-rule="nonzero" clip-path="url(#d07b2a19cf)"><path style=" stroke:none;fill-rule:nonzero;fill:#ffffff;fill-opacity:1;" d="M 297.269531 61.511719 L 321.792969 61.511719 L 321.792969 84.851562 L 297.269531 84.851562 Z M 297.269531 61.511719 "/></g></g><g clip-rule="nonzero" clip-path="url(#54b4d2b68a)"><g clip-rule="nonzero" clip-path="url(#77a1fbdb42)"><path style=" stroke:none;fill-rule:nonzero;fill:#ffffff;fill-opacity:1;" d="M 314.894531 53.9375 L 339.421875 53.9375 L 339.421875 77.277344 L 314.894531 77.277344 Z M 314.894531 53.9375 "/></g></g><g clip-rule="nonzero" clip-path="url(#8da50e5da7)"><g clip-rule="nonzero" clip-path="url(#9a85ef029c)"><path style=" stroke:none;fill-rule:nonzero;fill:#ffffff;fill-opacity:1;" d="M 258.582031 37.144531 L 283.105469 37.144531 L 283.105469 60.484375 L 258.582031 60.484375 Z M 258.582031 37.144531 "/></g></g></g></svg>